<mxfile host="app.diagrams.net" agent="Mozilla/5.0 (Windows NT 10.0; Win64; x64) AppleWebKit/537.36 (KHTML, like Gecko) Chrome/131.0.0.0 Safari/537.36 Edg/131.0.0.0" version="24.9.2">
  <diagram name="Page-1" id="61xfKvHeCp8lqXllXl3P">
    <mxGraphModel dx="2084" dy="1130" grid="1" gridSize="10" guides="1" tooltips="1" connect="1" arrows="1" fold="1" page="1" pageScale="1" pageWidth="850" pageHeight="1100" math="0" shadow="0">
      <root>
        <mxCell id="0" />
        <mxCell id="1" parent="0" />
        <mxCell id="khLSsKsNrKvO68XT6EFl-6" style="edgeStyle=orthogonalEdgeStyle;rounded=0;orthogonalLoop=1;jettySize=auto;html=1;exitX=1;exitY=0.75;exitDx=0;exitDy=0;entryX=0;entryY=0.75;entryDx=0;entryDy=0;" parent="1" source="khLSsKsNrKvO68XT6EFl-1" target="khLSsKsNrKvO68XT6EFl-2" edge="1">
          <mxGeometry relative="1" as="geometry" />
        </mxCell>
        <mxCell id="khLSsKsNrKvO68XT6EFl-10" style="edgeStyle=orthogonalEdgeStyle;rounded=0;orthogonalLoop=1;jettySize=auto;html=1;exitX=0.5;exitY=1;exitDx=0;exitDy=0;" parent="1" source="khLSsKsNrKvO68XT6EFl-1" target="khLSsKsNrKvO68XT6EFl-8" edge="1">
          <mxGeometry relative="1" as="geometry" />
        </mxCell>
        <mxCell id="khLSsKsNrKvO68XT6EFl-1" value="" style="rounded=0;whiteSpace=wrap;html=1;" parent="1" vertex="1">
          <mxGeometry x="50" y="70" width="120" height="60" as="geometry" />
        </mxCell>
        <mxCell id="khLSsKsNrKvO68XT6EFl-5" style="edgeStyle=orthogonalEdgeStyle;rounded=0;orthogonalLoop=1;jettySize=auto;html=1;exitX=0;exitY=0.25;exitDx=0;exitDy=0;entryX=1;entryY=0.25;entryDx=0;entryDy=0;" parent="1" source="khLSsKsNrKvO68XT6EFl-2" target="khLSsKsNrKvO68XT6EFl-1" edge="1">
          <mxGeometry relative="1" as="geometry" />
        </mxCell>
        <mxCell id="khLSsKsNrKvO68XT6EFl-12" style="edgeStyle=orthogonalEdgeStyle;rounded=0;orthogonalLoop=1;jettySize=auto;html=1;entryX=0.5;entryY=0;entryDx=0;entryDy=0;" parent="1" source="khLSsKsNrKvO68XT6EFl-2" target="khLSsKsNrKvO68XT6EFl-11" edge="1">
          <mxGeometry relative="1" as="geometry" />
        </mxCell>
        <mxCell id="khLSsKsNrKvO68XT6EFl-2" value="" style="rounded=0;whiteSpace=wrap;html=1;" parent="1" vertex="1">
          <mxGeometry x="290" y="70" width="250" height="60" as="geometry" />
        </mxCell>
        <mxCell id="khLSsKsNrKvO68XT6EFl-4" style="edgeStyle=orthogonalEdgeStyle;rounded=0;orthogonalLoop=1;jettySize=auto;html=1;" parent="1" source="khLSsKsNrKvO68XT6EFl-3" target="khLSsKsNrKvO68XT6EFl-2" edge="1">
          <mxGeometry relative="1" as="geometry" />
        </mxCell>
        <mxCell id="khLSsKsNrKvO68XT6EFl-3" value="" style="rounded=0;whiteSpace=wrap;html=1;" parent="1" vertex="1">
          <mxGeometry x="630" y="70" width="190" height="60" as="geometry" />
        </mxCell>
        <mxCell id="khLSsKsNrKvO68XT6EFl-13" style="edgeStyle=orthogonalEdgeStyle;rounded=0;orthogonalLoop=1;jettySize=auto;html=1;exitX=1;exitY=0.5;exitDx=0;exitDy=0;" parent="1" source="khLSsKsNrKvO68XT6EFl-8" target="khLSsKsNrKvO68XT6EFl-11" edge="1">
          <mxGeometry relative="1" as="geometry" />
        </mxCell>
        <mxCell id="khLSsKsNrKvO68XT6EFl-8" value="" style="rounded=0;whiteSpace=wrap;html=1;" parent="1" vertex="1">
          <mxGeometry x="30" y="200" width="160" height="90" as="geometry" />
        </mxCell>
        <mxCell id="khLSsKsNrKvO68XT6EFl-31" style="edgeStyle=orthogonalEdgeStyle;rounded=0;orthogonalLoop=1;jettySize=auto;html=1;exitX=0.5;exitY=0;exitDx=0;exitDy=0;entryX=0.5;entryY=1;entryDx=0;entryDy=0;" parent="1" source="khLSsKsNrKvO68XT6EFl-9" target="khLSsKsNrKvO68XT6EFl-8" edge="1">
          <mxGeometry relative="1" as="geometry" />
        </mxCell>
        <mxCell id="khLSsKsNrKvO68XT6EFl-9" value="" style="rounded=0;whiteSpace=wrap;html=1;" parent="1" vertex="1">
          <mxGeometry x="45" y="360" width="130" height="110" as="geometry" />
        </mxCell>
        <mxCell id="BEOj1g7dbuNZdG4i1Q8V-3" style="edgeStyle=orthogonalEdgeStyle;rounded=0;orthogonalLoop=1;jettySize=auto;html=1;exitX=0.25;exitY=1;exitDx=0;exitDy=0;entryX=0.25;entryY=0;entryDx=0;entryDy=0;" edge="1" parent="1" source="khLSsKsNrKvO68XT6EFl-11" target="khLSsKsNrKvO68XT6EFl-22">
          <mxGeometry relative="1" as="geometry" />
        </mxCell>
        <mxCell id="khLSsKsNrKvO68XT6EFl-11" value="" style="rounded=0;whiteSpace=wrap;html=1;" parent="1" vertex="1">
          <mxGeometry x="312.5" y="205" width="205" height="80" as="geometry" />
        </mxCell>
        <mxCell id="khLSsKsNrKvO68XT6EFl-29" style="edgeStyle=orthogonalEdgeStyle;rounded=0;orthogonalLoop=1;jettySize=auto;html=1;exitX=0;exitY=0.25;exitDx=0;exitDy=0;" parent="1" source="khLSsKsNrKvO68XT6EFl-14" edge="1">
          <mxGeometry relative="1" as="geometry">
            <mxPoint x="519.9999999999999" y="228.6190476190476" as="targetPoint" />
          </mxGeometry>
        </mxCell>
        <mxCell id="khLSsKsNrKvO68XT6EFl-14" value="" style="rounded=0;whiteSpace=wrap;html=1;" parent="1" vertex="1">
          <mxGeometry x="580" y="210" width="180" height="75" as="geometry" />
        </mxCell>
        <mxCell id="khLSsKsNrKvO68XT6EFl-18" style="edgeStyle=orthogonalEdgeStyle;rounded=0;orthogonalLoop=1;jettySize=auto;html=1;entryX=0;entryY=0.75;entryDx=0;entryDy=0;" parent="1" target="khLSsKsNrKvO68XT6EFl-14" edge="1">
          <mxGeometry relative="1" as="geometry">
            <mxPoint x="518" y="266" as="sourcePoint" />
          </mxGeometry>
        </mxCell>
        <mxCell id="BEOj1g7dbuNZdG4i1Q8V-4" style="edgeStyle=orthogonalEdgeStyle;rounded=0;orthogonalLoop=1;jettySize=auto;html=1;entryX=0.5;entryY=1;entryDx=0;entryDy=0;" edge="1" parent="1" source="khLSsKsNrKvO68XT6EFl-20" target="khLSsKsNrKvO68XT6EFl-9">
          <mxGeometry relative="1" as="geometry" />
        </mxCell>
        <mxCell id="khLSsKsNrKvO68XT6EFl-20" value="" style="rounded=0;whiteSpace=wrap;html=1;" parent="1" vertex="1">
          <mxGeometry x="45" y="510" width="130" height="110" as="geometry" />
        </mxCell>
        <mxCell id="BEOj1g7dbuNZdG4i1Q8V-5" style="edgeStyle=orthogonalEdgeStyle;rounded=0;orthogonalLoop=1;jettySize=auto;html=1;exitX=0.5;exitY=0;exitDx=0;exitDy=0;entryX=0.5;entryY=1;entryDx=0;entryDy=0;" edge="1" parent="1" source="khLSsKsNrKvO68XT6EFl-21" target="khLSsKsNrKvO68XT6EFl-20">
          <mxGeometry relative="1" as="geometry" />
        </mxCell>
        <mxCell id="khLSsKsNrKvO68XT6EFl-21" value="" style="rounded=0;whiteSpace=wrap;html=1;" parent="1" vertex="1">
          <mxGeometry x="50" y="670" width="120" height="40" as="geometry" />
        </mxCell>
        <mxCell id="BEOj1g7dbuNZdG4i1Q8V-11" style="edgeStyle=orthogonalEdgeStyle;rounded=0;orthogonalLoop=1;jettySize=auto;html=1;exitX=0.5;exitY=1;exitDx=0;exitDy=0;entryX=0.5;entryY=0;entryDx=0;entryDy=0;" edge="1" parent="1" source="khLSsKsNrKvO68XT6EFl-22" target="BEOj1g7dbuNZdG4i1Q8V-9">
          <mxGeometry relative="1" as="geometry" />
        </mxCell>
        <mxCell id="khLSsKsNrKvO68XT6EFl-22" value="" style="rounded=0;whiteSpace=wrap;html=1;" parent="1" vertex="1">
          <mxGeometry x="312.5" y="350" width="207.5" height="110" as="geometry" />
        </mxCell>
        <mxCell id="khLSsKsNrKvO68XT6EFl-23" value="" style="rounded=0;whiteSpace=wrap;html=1;" parent="1" vertex="1">
          <mxGeometry x="650" y="350" width="183.75" height="110" as="geometry" />
        </mxCell>
        <mxCell id="khLSsKsNrKvO68XT6EFl-30" value="" style="endArrow=classic;html=1;rounded=0;exitX=0.715;exitY=-0.002;exitDx=0;exitDy=0;entryX=0.794;entryY=0.967;entryDx=0;entryDy=0;entryPerimeter=0;exitPerimeter=0;" parent="1" source="khLSsKsNrKvO68XT6EFl-23" target="khLSsKsNrKvO68XT6EFl-3" edge="1">
          <mxGeometry width="50" height="50" relative="1" as="geometry">
            <mxPoint x="780" y="320" as="sourcePoint" />
            <mxPoint x="790" y="130" as="targetPoint" />
          </mxGeometry>
        </mxCell>
        <mxCell id="khLSsKsNrKvO68XT6EFl-34" style="edgeStyle=orthogonalEdgeStyle;rounded=0;orthogonalLoop=1;jettySize=auto;html=1;exitX=0.25;exitY=0;exitDx=0;exitDy=0;entryX=0.25;entryY=1;entryDx=0;entryDy=0;" parent="1" edge="1">
          <mxGeometry relative="1" as="geometry">
            <mxPoint x="480" y="350" as="sourcePoint" />
            <mxPoint x="480" y="285" as="targetPoint" />
          </mxGeometry>
        </mxCell>
        <mxCell id="khLSsKsNrKvO68XT6EFl-35" style="edgeStyle=orthogonalEdgeStyle;rounded=0;orthogonalLoop=1;jettySize=auto;html=1;exitX=0.5;exitY=1;exitDx=0;exitDy=0;" parent="1" source="khLSsKsNrKvO68XT6EFl-20" target="khLSsKsNrKvO68XT6EFl-20" edge="1">
          <mxGeometry relative="1" as="geometry" />
        </mxCell>
        <mxCell id="BEOj1g7dbuNZdG4i1Q8V-1" value="" style="endArrow=none;html=1;rounded=0;" edge="1" parent="1">
          <mxGeometry width="50" height="50" relative="1" as="geometry">
            <mxPoint x="110" y="330" as="sourcePoint" />
            <mxPoint x="680" y="330" as="targetPoint" />
          </mxGeometry>
        </mxCell>
        <mxCell id="BEOj1g7dbuNZdG4i1Q8V-2" value="" style="endArrow=classic;html=1;rounded=0;entryX=0.554;entryY=0.986;entryDx=0;entryDy=0;entryPerimeter=0;" edge="1" parent="1" target="khLSsKsNrKvO68XT6EFl-14">
          <mxGeometry width="50" height="50" relative="1" as="geometry">
            <mxPoint x="677" y="330" as="sourcePoint" />
            <mxPoint x="400" y="300" as="targetPoint" />
            <Array as="points">
              <mxPoint x="680" y="330" />
            </Array>
          </mxGeometry>
        </mxCell>
        <mxCell id="BEOj1g7dbuNZdG4i1Q8V-6" value="" style="endArrow=classic;startArrow=classic;html=1;rounded=0;exitX=1;exitY=0.5;exitDx=0;exitDy=0;entryX=0;entryY=0.5;entryDx=0;entryDy=0;" edge="1" parent="1" source="khLSsKsNrKvO68XT6EFl-21" target="BEOj1g7dbuNZdG4i1Q8V-12">
          <mxGeometry width="50" height="50" relative="1" as="geometry">
            <mxPoint x="190" y="730" as="sourcePoint" />
            <mxPoint x="240" y="695" as="targetPoint" />
          </mxGeometry>
        </mxCell>
        <mxCell id="BEOj1g7dbuNZdG4i1Q8V-17" style="edgeStyle=orthogonalEdgeStyle;rounded=0;orthogonalLoop=1;jettySize=auto;html=1;exitX=0.5;exitY=0;exitDx=0;exitDy=0;entryX=0.5;entryY=1;entryDx=0;entryDy=0;" edge="1" parent="1" source="BEOj1g7dbuNZdG4i1Q8V-7" target="khLSsKsNrKvO68XT6EFl-23">
          <mxGeometry relative="1" as="geometry" />
        </mxCell>
        <mxCell id="BEOj1g7dbuNZdG4i1Q8V-7" value="" style="rounded=0;whiteSpace=wrap;html=1;" vertex="1" parent="1">
          <mxGeometry x="650" y="520" width="183.75" height="110" as="geometry" />
        </mxCell>
        <mxCell id="BEOj1g7dbuNZdG4i1Q8V-9" value="" style="rounded=0;whiteSpace=wrap;html=1;" vertex="1" parent="1">
          <mxGeometry x="312.5" y="510" width="207.5" height="110" as="geometry" />
        </mxCell>
        <mxCell id="BEOj1g7dbuNZdG4i1Q8V-12" value="" style="rounded=0;whiteSpace=wrap;html=1;" vertex="1" parent="1">
          <mxGeometry x="370" y="665" width="377.5" height="50" as="geometry" />
        </mxCell>
        <mxCell id="BEOj1g7dbuNZdG4i1Q8V-15" style="edgeStyle=orthogonalEdgeStyle;rounded=0;orthogonalLoop=1;jettySize=auto;html=1;exitX=0.5;exitY=1;exitDx=0;exitDy=0;entryX=0.124;entryY=0.014;entryDx=0;entryDy=0;entryPerimeter=0;" edge="1" parent="1" source="BEOj1g7dbuNZdG4i1Q8V-9" target="BEOj1g7dbuNZdG4i1Q8V-12">
          <mxGeometry relative="1" as="geometry" />
        </mxCell>
        <mxCell id="BEOj1g7dbuNZdG4i1Q8V-16" style="edgeStyle=orthogonalEdgeStyle;rounded=0;orthogonalLoop=1;jettySize=auto;html=1;exitX=0.75;exitY=0;exitDx=0;exitDy=0;entryX=0.328;entryY=1.005;entryDx=0;entryDy=0;entryPerimeter=0;" edge="1" parent="1" source="BEOj1g7dbuNZdG4i1Q8V-12" target="BEOj1g7dbuNZdG4i1Q8V-7">
          <mxGeometry relative="1" as="geometry">
            <Array as="points">
              <mxPoint x="710" y="665" />
              <mxPoint x="710" y="645" />
            </Array>
          </mxGeometry>
        </mxCell>
        <mxCell id="BEOj1g7dbuNZdG4i1Q8V-18" value="" style="endArrow=classic;html=1;rounded=0;entryX=0.5;entryY=0;entryDx=0;entryDy=0;" edge="1" parent="1" target="khLSsKsNrKvO68XT6EFl-1">
          <mxGeometry width="50" height="50" relative="1" as="geometry">
            <mxPoint x="110" y="30" as="sourcePoint" />
            <mxPoint x="120" y="-60" as="targetPoint" />
          </mxGeometry>
        </mxCell>
      </root>
    </mxGraphModel>
  </diagram>
</mxfile>
